<svg width="350" height="350" viewBox="0 0 350 350" fill="none" xmlns="http://www.w3.org/2000/svg">
<circle cx="175" cy="175" r="175" fill="white"/>
<path d="M45 260.5H74M248.5 260.5H202M202 260.5V139.5H142M202 260.5H142M142 139.5V260.5M142 139.5V100H74V260.5M142 260.5H74" stroke="#8DAEC2" stroke-width="4"/>
<line x1="87.0069" y1="253.014" x2="85.9999" y2="108.014" stroke="#8DAEC2" stroke-width="4"/>
<line x1="131.007" y1="253.014" x2="130" y2="108.014" stroke="#8DAEC2" stroke-width="4"/>
<line x1="120.007" y1="253.014" x2="119" y2="108.014" stroke="#8DAEC2" stroke-width="4"/>
<line x1="109.007" y1="253.014" x2="108" y2="108.014" stroke="#8DAEC2" stroke-width="4"/>
<line x1="98.0069" y1="253.014" x2="96.9999" y2="108.014" stroke="#8DAEC2" stroke-width="4"/>
<rect x="81" y="88" width="52" height="12" stroke="#8DAEC2" stroke-width="4"/>
<rect x="150" y="128" width="45" height="12" stroke="#8DAEC2" stroke-width="4"/>
<rect x="158" y="116" width="29" height="12" stroke="#8DAEC2" stroke-width="4"/>
<line x1="173" y1="91" x2="173" y2="116" stroke="#8DAEC2" stroke-width="4"/>
<line x1="106" y1="58" x2="106" y2="88" stroke="#8DAEC2" stroke-width="4"/>
<rect x="157" y="149" width="5" height="6" fill="#8DAEC2"/>
<rect x="157" y="162" width="5" height="6" fill="#8DAEC2"/>
<rect x="157" y="174" width="5" height="6" fill="#8DAEC2"/>
<rect x="157" y="186" width="5" height="6" fill="#8DAEC2"/>
<rect x="183" y="149" width="5" height="6" fill="#8DAEC2"/>
<rect x="183" y="162" width="5" height="6" fill="#8DAEC2"/>
<rect x="183" y="174" width="5" height="6" fill="#8DAEC2"/>
<rect x="183" y="186" width="5" height="6" fill="#8DAEC2"/>
<rect x="170" y="149" width="5" height="6" fill="#8DAEC2"/>
<rect x="170" y="162" width="5" height="6" fill="#8DAEC2"/>
<rect x="170" y="174" width="5" height="6" fill="#8DAEC2"/>
<rect x="170" y="186" width="5" height="6" fill="#8DAEC2"/>
<rect x="157" y="198" width="5" height="6" fill="#8DAEC2"/>
<rect x="157" y="211" width="5" height="6" fill="#8DAEC2"/>
<rect x="157" y="223" width="5" height="6" fill="#8DAEC2"/>
<rect x="157" y="235" width="5" height="6" fill="#8DAEC2"/>
<rect x="183" y="198" width="5" height="6" fill="#8DAEC2"/>
<rect x="183" y="211" width="5" height="6" fill="#8DAEC2"/>
<rect x="183" y="223" width="5" height="6" fill="#8DAEC2"/>
<rect x="183" y="235" width="5" height="6" fill="#8DAEC2"/>
<rect x="170" y="198" width="5" height="6" fill="#8DAEC2"/>
<rect x="170" y="211" width="5" height="6" fill="#8DAEC2"/>
<rect x="170" y="223" width="5" height="6" fill="#8DAEC2"/>
<rect x="170" y="235" width="5" height="6" fill="#8DAEC2"/>
<rect x="157" y="247" width="5" height="6" fill="#8DAEC2"/>
<rect x="183" y="247" width="5" height="6" fill="#8DAEC2"/>
<rect x="170" y="247" width="5" height="6" fill="#8DAEC2"/>
<path d="M276.5 149V259H140.5V183L276.5 149Z" fill="#8DAEC2"/>
<path d="M107 259H140.5M308.5 259H276.5M276.5 259V149L140.5 183V259M276.5 259H140.5" stroke="white" stroke-width="4"/>
<rect x="155" y="234" width="19" height="25" fill="#8DAEC2" stroke="white" stroke-width="4"/>
<rect x="155" y="196" width="19" height="20" fill="#8DAEC2" stroke="white" stroke-width="4"/>
<rect x="242" y="196" width="19" height="20" fill="#8DAEC2" stroke="white" stroke-width="4"/>
<rect x="213" y="196" width="19" height="20" fill="#8DAEC2" stroke="white" stroke-width="4"/>
<rect x="184" y="196" width="19" height="20" fill="#8DAEC2" stroke="white" stroke-width="4"/>
<rect x="242" y="234" width="19" height="25" fill="#8DAEC2" stroke="white" stroke-width="4"/>
<rect x="213" y="234" width="19" height="25" fill="#8DAEC2" stroke="white" stroke-width="4"/>
<rect x="184" y="234" width="19" height="25" fill="#8DAEC2" stroke="white" stroke-width="4"/>
<line x1="45" y1="259.5" x2="313" y2="259.5" stroke="#8DAEC2" stroke-width="7"/>
</svg>
